<svg width="140" height="190" viewBox="0 0 140 190" fill="none" xmlns="http://www.w3.org/2000/svg">
<path d="M70.0036 116.938C69.5943 116.938 69.1849 116.938 68.7755 116.938C39.3003 116.938 15.3517 94.014 15.3517 65.8144C15.3517 37.6082 39.3003 14.6907 68.7755 14.6907C69.1849 14.6907 69.5943 14.6907 70.0036 14.6907V0C69.5943 0 69.1849 0 68.7755 0C30.7034 0 0 29.3814 0 65.8144C0 102.058 30.7034 131.629 68.7755 131.629C69.1849 131.629 69.5943 131.629 70.0036 131.629V116.938Z" fill="#2196F3"/>
<path d="M68.7749 43.8765C69.1843 43.8765 69.5937 43.8765 70.003 43.8765V29.3817C69.5937 29.3817 69.1843 29.1858 68.7749 29.1858C47.6919 29.1858 30.498 45.6394 30.498 65.8146C30.498 85.9899 47.6919 102.241 68.7749 102.241C69.1843 102.241 70.8218 102.241 71.2312 102.241C83.9219 102.241 94.1495 112.041 94.1495 124.186C94.1495 136.324 83.9151 146.111 71.2312 146.111C70.8218 146.111 70.4124 146.111 69.9962 145.921V160.619C70.4124 160.619 70.8218 160.619 71.2312 160.619C92.3141 160.619 109.501 144.354 109.501 124.186C109.501 104.004 92.3073 87.5569 71.2312 87.5569C70.8218 87.5569 69.1774 87.7528 68.7749 87.7528C56.0842 87.7528 45.8565 77.959 45.8565 65.8146C45.8565 53.6703 56.0842 43.8765 68.7749 43.8765Z" fill="#2196F3"/>
<path d="M71.2384 58.3777C70.829 58.3777 70.4196 58.3777 70.0034 58.3777V73.0684C70.4196 73.0684 70.829 73.0684 71.2384 73.0684C100.911 73.0684 124.86 95.9859 124.86 124.199C124.86 152.392 100.911 175.316 71.2384 175.316C70.829 175.316 70.4196 175.316 70.0034 175.316V190H71.0269H71.4362C109.297 189.811 140 160.429 140 124.199C140.007 87.7591 109.304 58.3777 71.2384 58.3777Z" fill="#2196F3"/>
</svg>
